{
  "accessors": [
    {
      "bufferView": 1,
      "componentType": 5126,
      "count": 192,
      "max": [
        0.57108402252197266,
        0.57108598947525024,
        0.43735998868942261
      ],
      "min": [
        -0.57108801603317261,
        -0.57108598947525024,
        0.13941200077533722
      ],
      "type": "VEC3"
    },
    {
      "bufferView": 1,
      "byteOffset": 2304,
      "componentType": 5126,
      "count": 192,
      "max": [
        0.84160059690475464,
        0.84160059690475464,
        -0.5401003360748291
      ],
      "min": [
        -0.84160059690475464,
        -0.84160059690475464,
        -0.95157712697982788
      ],
      "type": "VEC3"
    },
    {
      "bufferView": 0,
      "componentType": 5125,
      "count": 960,
      "max": [
        191
      ],
      "min": [
        0
      ],
      "type": "SCALAR"
    },
    {
      "bufferView": 1,
      "byteOffset": 4608,
      "componentType": 5126,
      "count": 642,
      "max": [
        2.4791779518127441,
        2.4791779518127441,
        9.0044059753417969
      ],
      "min": [
        -2.4791779518127441,
        -2.4791779518127441,
        2.0754189491271973
      ],
      "type": "VEC3"
    },
    {
      "bufferView": 1,
      "byteOffset": 12312,
      "componentType": 5126,
      "count": 642,
      "max": [
        0.99548697471618652,
        0.99548697471618652,
        1
      ],
      "min": [
        -0.99548697471618652,
        -0.99548697471618652,
        -1
      ],
      "type": "VEC3"
    },
    {
      "bufferView": 0,
      "byteOffset": 3840,
      "componentType": 5125,
      "count": 3840,
      "max": [
        641
      ],
      "min": [
        0
      ],
      "type": "SCALAR"
    },
    {
      "bufferView": 1,
      "byteOffset": 20016,
      "componentType": 5126,
      "count": 865,
      "max": [
        0.90500301122665405,
        0.42829099297523499,
        7.1281719207763672
      ],
      "min": [
        -0.89796799421310425,
        -0.42829200625419617,
        2.0373289585113525
      ],
      "type": "VEC3"
    },
    {
      "bufferView": 1,
      "byteOffset": 30396,
      "componentType": 5126,
      "count": 865,
      "max": [
        1,
        1,
        1
      ],
      "min": [
        -1,
        -1,
        -1
      ],
      "type": "VEC3"
    },
    {
      "bufferView": 0,
      "byteOffset": 19200,
      "componentType": 5125,
      "count": 4896,
      "max": [
        864
      ],
      "min": [
        0
      ],
      "type": "SCALAR"
    },
    {
      "bufferView": 1,
      "byteOffset": 40776,
      "componentType": 5126,
      "count": 2410,
      "max": [
        1.003931999206543,
        0.74335300922393799,
        7.7767171859741211
      ],
      "min": [
        -1.0193400382995605,
        -0.63634800910949707,
        5.7253952026367188
      ],
      "type": "VEC3"
    },
    {
      "bufferView": 1,
      "byteOffset": 69696,
      "componentType": 5126,
      "count": 2410,
      "max": [
        0.99965018033981323,
        0.99911266565322876,
        0.99785029888153076
      ],
      "min": [
        -0.99998533725738525,
        -0.99904835224151611,
        -0.99811416864395142
      ],
      "type": "VEC3"
    },
    {
      "bufferView": 0,
      "byteOffset": 38784,
      "componentType": 5125,
      "count": 14400,
      "max": [
        2409
      ],
      "min": [
        0
      ],
      "type": "SCALAR"
    },
    {
      "bufferView": 1,
      "byteOffset": 98616,
      "componentType": 5126,
      "count": 1142,
      "max": [
        1.1217859983444214,
        1.1135239601135254,
        2.2160329818725586
      ],
      "min": [
        -1.1135250329971313,
        -1.1307100057601929,
        0.077976003289222717
      ],
      "type": "VEC3"
    },
    {
      "bufferView": 1,
      "byteOffset": 112320,
      "componentType": 5126,
      "count": 1142,
      "max": [
        0.99965411424636841,
        0.99963575601577759,
        1
      ],
      "min": [
        -0.99964874982833862,
        -0.99964910745620728,
        -1
      ],
      "type": "VEC3"
    },
    {
      "bufferView": 0,
      "byteOffset": 96384,
      "componentType": 5125,
      "count": 6366,
      "max": [
        1141
      ],
      "min": [
        0
      ],
      "type": "SCALAR"
    },
    {
      "bufferView": 1,
      "byteOffset": 126024,
      "componentType": 5126,
      "count": 672,
      "max": [
        0.96590602397918701,
        0.10292199999094009,
        5.8786787986755371
      ],
      "min": [
        -0.91878300905227661,
        -0.16907399892807007,
        3.3882589340209961
      ],
      "type": "VEC3"
    },
    {
      "bufferView": 1,
      "byteOffset": 134088,
      "componentType": 5126,
      "count": 672,
      "max": [
        0.99980646371841431,
        0.99915885925292969,
        0.96287602186203003
      ],
      "min": [
        -0.99981874227523804,
        -0.99912160634994507,
        -0.97309339046478271
      ],
      "type": "VEC3"
    },
    {
      "bufferView": 0,
      "byteOffset": 121848,
      "componentType": 5125,
      "count": 3648,
      "max": [
        671
      ],
      "min": [
        0
      ],
      "type": "SCALAR"
    }
  ],
  "asset": {
    "extras": {
      "author": "ministephen (https://sketchfab.com/ministephen)",
      "license": "CC-BY-4.0 (http://creativecommons.org/licenses/by/4.0/)",
      "source": "https://sketchfab.com/models/aeb0e4832f04463280510e550e2cdbd5",
      "title": "Edison Light Bulb"
    },
    "generator": "Sketchfab-3.47.8",
    "version": "2.0"
  },
  "bufferViews": [
    {
      "buffer": 0,
      "byteLength": 136440,
      "byteOffset": 0,
      "name": "floatBufferViews",
      "target": 34963
    },
    {
      "buffer": 0,
      "byteLength": 142152,
      "byteOffset": 136440,
      "byteStride": 12,
      "name": "floatBufferViews",
      "target": 34962
    }
  ],
  "buffers": [
    {
      "byteLength": 278592,
      "uri": "scene.bin"
    }
  ],
  "materials": [
    {
      "doubleSided": true,
      "emissiveFactor": [
        0,
        0,
        0
      ],
      "name": "black",
      "pbrMetallicRoughness": {
        "baseColorFactor": [
          0,
          0,
          0,
          1
        ],
        "metallicFactor": 0.3187881098,
        "roughnessFactor": 0
      }
    },
    {
      "alphaMode": "BLEND",
      "doubleSided": true,
      "name": "glass",
      "pbrMetallicRoughness": {
        "baseColorFactor": [
          1,
          1,
          1,
          0.35537347559999999
        ],
        "metallicFactor": 1,
        "roughnessFactor": 0
      }
    },
    {
      "alphaMode": "BLEND",
      "doubleSided": true,
      "emissiveFactor": [
        0,
        0,
        0
      ],
      "name": "glass-thicker",
      "pbrMetallicRoughness": {
        "baseColorFactor": [
          0.64000000000000001,
          0.64000000000000001,
          0.64000000000000001,
          0.001714939
        ],
        "metallicFactor": 1,
        "roughnessFactor": 0
      }
    },
    {
      "doubleSided": true,
      "emissiveFactor": [
        0.87564621399999998,
        0.121614797,
        0
      ],
      "name": "glow",
      "pbrMetallicRoughness": {
        "baseColorFactor": [
          1,
          0.27119792869999998,
          0,
          1
        ],
        "metallicFactor": 0,
        "roughnessFactor": 0
      }
    },
    {
      "doubleSided": true,
      "emissiveFactor": [
        0,
        0,
        0
      ],
      "name": "gold",
      "pbrMetallicRoughness": {
        "baseColorFactor": [
          0.94066520580000001,
          0.62302342349999995,
          0.2058350729,
          1
        ],
        "metallicFactor": 1,
        "roughnessFactor": 0.10194359760000005
      }
    },
    {
      "doubleSided": true,
      "emissiveFactor": [
        0,
        0,
        0
      ],
      "name": "metal",
      "pbrMetallicRoughness": {
        "baseColorFactor": [
          0.0016779845853943619,
          0.0015216057540167209,
          0.0014181197482533386,
          1
        ],
        "metallicFactor": 0.26391006099999997,
        "roughnessFactor": 0
      }
    }
  ],
  "meshes": [
    {
      "primitives": [
        {
          "attributes": {
            "NORMAL": 1,
            "POSITION": 0
          },
          "indices": 2,
          "material": 0,
          "mode": 4
        }
      ]
    },
    {
      "primitives": [
        {
          "attributes": {
            "NORMAL": 4,
            "POSITION": 3
          },
          "indices": 5,
          "material": 1,
          "mode": 4
        }
      ]
    },
    {
      "primitives": [
        {
          "attributes": {
            "NORMAL": 7,
            "POSITION": 6
          },
          "indices": 8,
          "material": 2,
          "mode": 4
        }
      ]
    },
    {
      "primitives": [
        {
          "attributes": {
            "NORMAL": 10,
            "POSITION": 9
          },
          "indices": 11,
          "material": 3,
          "mode": 4
        }
      ]
    },
    {
      "primitives": [
        {
          "attributes": {
            "NORMAL": 13,
            "POSITION": 12
          },
          "indices": 14,
          "material": 4,
          "mode": 4
        }
      ]
    },
    {
      "primitives": [
        {
          "attributes": {
            "NORMAL": 16,
            "POSITION": 15
          },
          "indices": 17,
          "material": 5,
          "mode": 4
        }
      ]
    }
  ],
  "nodes": [
    {
      "children": [
        1
      ],
      "name": "RootNode (gltf orientation matrix)",
      "rotation": [
        -0.70710678118654746,
        -0,
        -0,
        0.70710678118654757
      ]
    },
    {
      "children": [
        2
      ],
      "name": "RootNode (model correction matrix)"
    },
    {
      "children": [
        3,
        4,
        5,
        6,
        7,
        8
      ],
      "name": "bolb.obj.cleaner.materialmerger.gles"
    },
    {
      "mesh": 0,
      "name": ""
    },
    {
      "mesh": 1,
      "name": ""
    },
    {
      "mesh": 2,
      "name": ""
    },
    {
      "mesh": 3,
      "name": ""
    },
    {
      "mesh": 4,
      "name": ""
    },
    {
      "mesh": 5,
      "name": ""
    }
  ],
  "scene": 0,
  "scenes": [
    {
      "name": "OSG_Scene",
      "nodes": [
        0
      ]
    }
  ]
}

